<?xml version="1.0" encoding="iso-8859-1"?>
<!-- Uploaded to: SVG Repo, www.svgrepo.com, Generator: SVG Repo Mixer Tools -->
<svg height="800px" width="800px" version="1.1" id="Layer_1" xmlns="http://www.w3.org/2000/svg" xmlns:xlink="http://www.w3.org/1999/xlink" 
	 viewBox="0 0 508 508" xml:space="preserve">
<path style="fill:#F4EFEF;" d="M479.2,178.2h-4.4c-1.2,0-2-0.8-2-2v-6c0-27.6-22.8-49.2-50-49.2H58c-27.6,0-52,19.6-52,46.8v168.4
	c0,27.6,25.6,49.6,52.8,49.6H424c27.6,0,50-22.4,50-49.6v-8.4l4-2h2c14.4,0,26-11.6,26-26v-96C506,189.8,493.6,178.2,479.2,178.2z"
	/>
<path style="fill:#54B265;" d="M440,333.8c0,13.2-8.8,27.2-22,27.2H62c-13.2,0-28-15.2-28-28.4V172.2C34,159,48.8,153,62,153h356
	c13.2,0,22,8.4,22,21.6V333.8z"/>
<path d="M56.8,392.2C26,392.2,0,366.6,0,336.6V168.2c0-29.6,25.2-52.8,57.6-52.8h364.8c30.8,0,55.6,24.8,55.6,55.2v2
	c17.2,0,30,14,30,32v96c0,17.6-14.4,32-32,32l0,0v4.4c0,30.8-24.8,55.6-55.2,55.6L56.8,392.2z M57.6,123C29.6,123,8,142.6,8,167.8
	v168.4c0,26,22.4,47.6,48.8,47.6h364c26,0,47.2-21.6,47.2-47.6v-8.4c0-1.2,0.4-2,1.2-2.8s2-1.2,2.8-1.2h4c13.2,0,24-10.8,24-24v-96
	c0-13.6-9.6-24-22.4-24l0,0H474c-2,0-3.6-1.6-4-4l-0.4-6c0-26-21.2-47.2-47.6-47.2H57.6V123z"/>
<path d="M472,333c-2.4,0-4-1.6-4-4V225c0-2.4,1.6-4,4-4s4,1.6,4,4v104C476,331.4,474.4,333,472,333z"/>
<path d="M418,363H62c-15.6,0-30-14.8-30-30.4V172.2c0-16,15.2-25.2,30-25.2h356c15.6,0,27.2,11.6,27.2,26.8c0,2.4-1.6,4-4,4
	s-4-1.6-4-4c0-10.8-8-18.8-19.2-18.8H62c-10.8,0-22,6.4-22,17.2v160.4c0,11.2,11.2,22.4,22,22.4h356.4c11.2,0,18-11.6,18-22V221
	c0-2.4,1.6-4,4-4s4,1.6,4,4v112C444,347.4,434,363,418,363z"/>
</svg>